<?xml version="1.0"?>
<svg width="640" height="480.00000000000006" xmlns="http://www.w3.org/2000/svg" xmlns:svg="http://www.w3.org/2000/svg">
 <!-- Created with SVG-edit - http://svg-edit.googlecode.com/ -->
 <g>
  <title>Layer 1</title>
  <path id="svg_1" d="m26.4,0l-23.8,0c-0.886,0 -2.6,1.715 -2.6,2.6l0,23.8c0,0.884001 1.715,2.6 2.6,2.6l12.393,0l0,-11.011999l-3.996,0l0,-3.98l3.997001,0l0,-3.062c0,-3.746 2.835,-5.97 6.176999,-5.97c1.6,0 2.444,0.173 2.845001,0.226l0,3.792l-2.836,0c-1.816999,0 -2.156,0.9 -2.156,2.167999l0,2.847l5.045,0l-0.66,3.978l-4.386,0l0,11.013l7.376999,0c0.884001,0 2.6,-1.716 2.6,-2.6l0,-23.8c0,-0.885 -1.716,-2.6 -2.6,-2.6z"/>
 </g>
</svg>